<svg xmlns="http://www.w3.org/2000/svg" width="601" height="152" viewBox="0 0 601 152" fill="none"><path fill-rule="evenodd" clip-rule="evenodd" d="M66.447 0.541735C57.5194 1.57643 46.4855 5.20854 38.544 9.72567C19.5421 20.5348 6.36806 38.489 1.42804 60.3088C0.34054 65.1117 0.329874 65.5205 0.165659 108.386L0 151.62H40.1174C64.8572 151.62 81.8082 151.427 84.3392 151.118C93.434 150.005 104.156 146.619 111.394 142.573L114.483 140.847L89.5956 115.956L64.708 91.0644L64.5782 102.692L64.4484 114.32H50.6092H36.7701L36.9862 92.4009C37.2293 67.7885 37.3214 66.9805 40.7185 59.7313C45.6348 49.2405 54.2888 41.814 65.2937 38.6416C70.7036 37.0818 80.5124 37.0823 85.9247 38.6425C92.6003 40.5666 98.0185 43.725 102.734 48.4407C107.585 53.2911 111.225 59.6262 112.965 66.2433C114.279 71.2429 114.376 79.7622 113.172 84.5293C112.054 88.9563 109.031 95.4266 106.536 98.7302L104.551 101.36L117.657 114.467C129.353 126.162 130.85 127.501 131.568 126.905C132.011 126.538 134.074 123.972 136.152 121.204C142.534 112.704 146.921 103.159 149.557 92.0376C151.049 85.7432 151.625 72.9504 150.725 66.1217C145.288 24.8988 107.822 -4.25538 66.447 0.541735Z" fill="url(#paint0_linear_1546_86)"></path><path d="M190.211 61.252V14.6239H207.287C211.446 14.6239 215.08 15.233 218.188 16.4512C221.297 17.6694 223.88 19.3287 225.939 21.4291C228.039 23.5294 229.614 25.9448 230.664 28.6753C231.715 31.3638 232.24 34.1993 232.24 37.1818V38.5681C232.24 41.3826 231.715 44.134 230.664 46.8225C229.614 49.511 228.039 51.9474 225.939 54.1318C223.88 56.3162 221.297 58.0595 218.188 59.3617C215.08 60.6219 211.446 61.252 207.287 61.252H190.211ZM207.854 24.2646H200.545V51.6114H207.854C212.181 51.6114 215.584 50.3511 218.062 47.8307C220.541 45.3102 221.78 41.9917 221.78 37.8749C221.78 33.5482 220.541 30.2086 218.062 27.8562C215.584 25.4618 212.181 24.2646 207.854 24.2646ZM248.701 61.8822C244.963 61.8822 241.938 60.916 239.628 58.9836C237.359 57.0513 236.225 54.3208 236.225 50.7922C236.225 48.2718 236.876 46.2134 238.179 44.6171C239.481 42.9788 241.308 41.7816 243.66 41.0255C246.013 40.2274 248.722 39.8283 251.789 39.8283H258.027V39.7023C258.027 36.1736 256.263 34.4093 252.734 34.4093C251.81 34.4093 250.592 34.4513 249.079 34.5354C247.567 34.5774 245.992 34.6404 244.354 34.7244C242.757 34.7664 241.329 34.8294 240.069 34.9134V26.4069C241.539 26.2809 243.345 26.1759 245.488 26.0919C247.63 25.9659 249.605 25.9028 251.411 25.9028C256.704 25.9028 260.736 27.037 263.509 29.3054C266.323 31.5318 267.731 35.0394 267.731 39.8283V61H259.728V54.5099C258.972 56.9043 257.67 58.7316 255.822 59.9918C253.973 61.252 251.6 61.8822 248.701 61.8822ZM251.726 54.8879C253.364 54.8879 254.792 54.4258 256.011 53.5017C257.229 52.5775 257.901 50.8132 258.027 48.2088V45.4363H251.726C249.962 45.4363 248.596 45.8773 247.63 46.7595C246.706 47.6417 246.244 48.7969 246.244 50.2251C246.244 51.6114 246.706 52.7456 247.63 53.6277C248.596 54.4679 249.962 54.8879 251.726 54.8879ZM282.41 61L272.076 26.4699H282.473L289.845 52.6195H291.294L297.658 26.4699H307.362L298.415 61H282.41ZM318.873 23.0673C316.983 23.0673 315.575 22.5843 314.651 21.6181C313.769 20.6099 313.328 19.3497 313.328 17.8374C313.328 16.2832 313.769 15.0229 314.651 14.0568C315.575 13.0486 316.983 12.5445 318.873 12.5445C320.763 12.5445 322.15 13.0486 323.032 14.0568C323.956 15.0229 324.418 16.2832 324.418 17.8374C324.418 19.3497 323.956 20.6099 323.032 21.6181C322.15 22.5843 320.763 23.0673 318.873 23.0673ZM314.966 61V33.9052H310.367V26.4699H325.048V61H314.966ZM348.613 62.1342C345.379 62.1342 342.522 61.3781 340.044 59.8658C337.607 58.3115 335.696 56.2112 334.31 53.5647C332.924 50.9182 332.23 47.9357 332.23 44.6171V43.1679C332.23 39.8493 332.881 36.8458 334.184 34.1573C335.486 31.4688 337.334 29.3474 339.729 27.7932C342.165 26.2389 345.001 25.4618 348.235 25.4618C353.276 25.4618 356.994 27.3731 359.388 31.1958V15.0019H369.533V61H361.531V53.7537C360.396 56.4842 358.716 58.5636 356.49 59.9918C354.263 61.4201 351.638 62.1342 348.613 62.1342ZM351.134 53.6907C353.444 53.6907 355.439 52.9136 357.12 51.3593C358.8 49.805 359.64 47.5996 359.64 44.7431V42.4117C359.64 40.6054 359.241 39.0722 358.443 37.8119C357.645 36.5097 356.595 35.5225 355.292 34.8504C353.99 34.1783 352.583 33.8422 351.071 33.8422C348.508 33.8422 346.408 34.7664 344.77 36.6147C343.131 38.463 342.312 40.8785 342.312 43.861C342.312 46.8855 343.131 49.2799 344.77 51.0443C346.45 52.8086 348.571 53.6907 351.134 53.6907ZM392.474 61V14.6239H410.559C416.314 14.6239 420.871 15.9261 424.232 18.5305C427.593 21.093 429.273 24.9367 429.273 30.0616V31.0697C429.273 34.4303 428.496 37.2448 426.941 39.5132C425.429 41.7396 423.308 43.4199 420.577 44.5541L432.36 61H420.388L410.307 46.2554H402.808V61H392.474ZM411.378 23.3824H402.808V38.127H411.378C413.604 38.127 415.389 37.4549 416.734 36.1106C418.12 34.7664 418.813 32.9811 418.813 30.7547C418.813 28.5703 418.12 26.806 416.734 25.4618C415.389 24.0755 413.604 23.3824 411.378 23.3824ZM454.143 62.1972C450.111 62.1972 446.666 61.3781 443.81 59.7398C440.995 58.1015 438.853 55.9591 437.383 53.3127C435.912 50.6242 435.177 47.7047 435.177 44.5541V43.1049C435.177 39.8703 435.933 36.9088 437.446 34.2203C439 31.4898 441.184 29.3264 443.999 27.7302C446.855 26.0919 450.237 25.2727 454.143 25.2727C458.05 25.2727 461.432 26.0919 464.288 27.7302C467.145 29.3264 469.329 31.4898 470.841 34.2203C472.396 36.9088 473.173 39.8703 473.173 43.1049V44.5541C473.173 47.7047 472.417 50.6242 470.904 53.3127C469.434 55.9591 467.292 58.1015 464.477 59.7398C461.663 61.3781 458.218 62.1972 454.143 62.1972ZM454.143 53.6907C457.042 53.6907 459.247 52.7666 460.76 50.9182C462.314 49.0279 463.091 46.6755 463.091 43.861C463.091 40.9625 462.293 38.5681 460.697 36.6777C459.142 34.7454 456.958 33.7792 454.143 33.7792C451.329 33.7792 449.145 34.7454 447.59 36.6777C446.036 38.5681 445.259 40.9625 445.259 43.861C445.259 46.6755 446.015 49.0279 447.527 50.9182C449.04 52.7666 451.245 53.6907 454.143 53.6907ZM495.71 62.1972C492.727 62.1972 490.123 61.7141 487.896 60.748C485.712 59.7398 483.885 58.3955 482.414 56.7152C480.944 55.035 479.852 53.1446 479.138 51.0443C478.424 48.9019 478.067 46.6965 478.067 44.4281V43.2309C478.067 40.0803 478.718 37.1398 480.02 34.4093C481.364 31.6789 483.338 29.4735 485.943 27.7932C488.589 26.1129 491.824 25.2727 495.647 25.2727C498.755 25.2727 501.507 25.8818 503.901 27.1C506.295 28.2763 508.207 29.9355 509.635 32.0779C511.063 34.2203 511.861 36.6777 512.029 39.4502H502.137C501.969 37.8959 501.339 36.5937 500.246 35.5435C499.154 34.4513 497.621 33.9052 495.647 33.9052C493.084 33.9052 491.194 34.8294 489.976 36.6777C488.757 38.484 488.148 40.8785 488.148 43.861C488.148 46.6755 488.715 49.0069 489.85 50.8552C491.026 52.6615 492.979 53.5647 495.71 53.5647C497.726 53.5647 499.301 53.0396 500.435 51.9894C501.57 50.9392 502.242 49.553 502.452 47.8307H512.282C512.114 50.6872 511.294 53.2076 509.824 55.392C508.396 57.5344 506.443 59.2147 503.964 60.4329C501.528 61.6091 498.776 62.1972 495.71 62.1972ZM518.729 61V15.0019H528.811V32.1409C530.659 27.6461 534.062 25.3988 539.019 25.3988H539.46C543.283 25.3988 546.202 26.764 548.218 29.4945C550.235 32.1829 551.243 36.1316 551.243 41.3406V61H541.161V40.7104C541.161 38.8201 540.594 37.3078 539.46 36.1736C538.368 34.9974 536.919 34.4093 535.112 34.4093C533.222 34.4093 531.689 35.0394 530.512 36.2997C529.378 37.5179 528.811 39.1142 528.811 41.0885V61H518.729ZM569.664 61.8822C565.925 61.8822 562.901 60.916 560.59 58.9836C558.322 57.0513 557.188 54.3208 557.188 50.7922C557.188 48.2718 557.839 46.2134 559.141 44.6171C560.443 42.9788 562.271 41.7816 564.623 41.0255C566.975 40.2274 569.685 39.8283 572.751 39.8283H578.99V39.7023C578.99 36.1736 577.225 34.4093 573.697 34.4093C572.772 34.4093 571.554 34.4513 570.042 34.5354C568.53 34.5774 566.954 34.6404 565.316 34.7244C563.72 34.7664 562.292 34.8294 561.031 34.9134V26.4069C562.502 26.2809 564.308 26.1759 566.45 26.0919C568.593 25.9659 570.567 25.9028 572.373 25.9028C577.666 25.9028 581.699 27.037 584.472 29.3054C587.286 31.5318 588.693 35.0394 588.693 39.8283V61H580.691V54.5099C579.935 56.9043 578.632 58.7316 576.784 59.9918C574.936 61.252 572.562 61.8822 569.664 61.8822ZM572.688 54.8879C574.327 54.8879 575.755 54.4258 576.973 53.5017C578.191 52.5775 578.864 50.8132 578.99 48.2088V45.4363H572.688C570.924 45.4363 569.559 45.8773 568.593 46.7595C567.669 47.6417 567.206 48.7969 567.206 50.2251C567.206 51.6114 567.669 52.7456 568.593 53.6277C569.559 54.4679 570.924 54.8879 572.688 54.8879ZM198.248 134L186.789 91.5402H192.664L202.261 128.882H204.064L211.858 93.2852H219.129L227.911 128.882H229.714L238.265 91.5402H243.965L233.553 134H223.782L215.464 100.846L207.961 134H198.248ZM262.842 135.047C260.128 135.047 257.782 134.582 255.804 133.651C253.827 132.72 252.217 131.499 250.977 129.987C249.736 128.436 248.805 126.71 248.185 124.81C247.603 122.91 247.312 120.971 247.312 118.994V117.947C247.312 115.93 247.603 113.972 248.185 112.072C248.805 110.172 249.736 108.466 250.977 106.954C252.217 105.403 253.788 104.181 255.688 103.289C257.627 102.359 259.895 101.893 262.493 101.893C265.867 101.893 268.639 102.63 270.811 104.104C273.021 105.538 274.649 107.4 275.696 109.687C276.782 111.975 277.325 114.418 277.325 117.016V119.517H252.663C252.857 122.58 253.768 125.12 255.397 127.137C257.026 129.153 259.507 130.161 262.842 130.161C265.285 130.161 267.263 129.618 268.775 128.533C270.326 127.447 271.256 126.187 271.567 124.752H276.801C276.142 127.97 274.572 130.491 272.09 132.313C269.608 134.136 266.526 135.047 262.842 135.047ZM262.493 106.779C259.701 106.779 257.51 107.574 255.921 109.164C254.331 110.715 253.323 112.77 252.896 115.329H271.857C271.508 112.693 270.558 110.618 269.007 109.106C267.456 107.555 265.285 106.779 262.493 106.779ZM301.655 135.047C298.902 135.047 296.479 134.407 294.385 133.128C292.33 131.848 290.759 130.006 289.673 127.602V134H285.253V91.5402H290.837V108.291C292 106.12 293.57 104.511 295.548 103.464C297.526 102.417 299.716 101.893 302.12 101.893C305.106 101.893 307.704 102.611 309.914 104.046C312.125 105.48 313.85 107.4 315.091 109.804C316.332 112.208 316.952 114.883 316.952 117.83V118.877C316.952 121.786 316.313 124.48 315.033 126.962C313.753 129.405 311.97 131.363 309.682 132.837C307.394 134.31 304.718 135.047 301.655 135.047ZM301.015 130.161C303.109 130.161 304.932 129.657 306.483 128.649C308.034 127.641 309.236 126.264 310.089 124.519C310.942 122.736 311.369 120.68 311.369 118.354C311.369 114.864 310.419 112.072 308.519 109.978C306.619 107.846 304.117 106.779 301.015 106.779C299.154 106.779 297.429 107.206 295.839 108.059C294.249 108.873 292.969 110.075 292 111.665C291.069 113.216 290.604 115.097 290.604 117.307V119.982C290.604 122.115 291.089 123.938 292.058 125.45C293.028 126.962 294.307 128.125 295.897 128.94C297.487 129.754 299.193 130.161 301.015 130.161ZM339.403 134.233V91.3076H353.944C357.783 91.3076 361.118 91.9086 363.948 93.1107C366.779 94.274 369.125 95.8638 370.986 97.8801C372.886 99.8577 374.302 102.087 375.232 104.569C376.163 107.012 376.628 109.513 376.628 112.072V113.352C376.628 115.833 376.163 118.315 375.232 120.797C374.302 123.278 372.886 125.527 370.986 127.544C369.125 129.56 366.779 131.189 363.948 132.43C361.118 133.632 357.783 134.233 353.944 134.233H339.403ZM354.526 96.5423H345.103V128.998H354.526C357.938 128.998 360.846 128.281 363.25 126.846C365.693 125.411 367.555 123.472 368.834 121.029C370.153 118.548 370.812 115.775 370.812 112.712C370.812 109.532 370.153 106.74 368.834 104.336C367.555 101.893 365.693 99.9934 363.25 98.6363C360.846 97.2403 357.938 96.5423 354.526 96.5423ZM397.801 135.047C395.086 135.047 392.741 134.582 390.763 133.651C388.785 132.72 387.176 131.499 385.935 129.987C384.695 128.436 383.764 126.71 383.143 124.81C382.562 122.91 382.271 120.971 382.271 118.994V117.947C382.271 115.93 382.562 113.972 383.143 112.072C383.764 110.172 384.695 108.466 385.935 106.954C387.176 105.403 388.747 104.181 390.647 103.289C392.585 102.359 394.854 101.893 397.452 101.893C400.825 101.893 403.598 102.63 405.769 104.104C407.98 105.538 409.608 107.4 410.655 109.687C411.741 111.975 412.284 114.418 412.284 117.016V119.517H387.622C387.816 122.58 388.727 125.12 390.356 127.137C391.984 129.153 394.466 130.161 397.801 130.161C400.244 130.161 402.221 129.618 403.734 128.533C405.285 127.447 406.215 126.187 406.525 124.752H411.76C411.101 127.97 409.531 130.491 407.049 132.313C404.567 134.136 401.485 135.047 397.801 135.047ZM397.452 106.779C394.66 106.779 392.469 107.574 390.879 109.164C389.289 110.715 388.281 112.77 387.855 115.329H406.816C406.467 112.693 405.517 110.618 403.966 109.106C402.415 107.555 400.244 106.779 397.452 106.779ZM430.39 134.931C426.319 134.931 423.159 134.058 420.91 132.313C418.699 130.568 417.556 128.184 417.478 125.159H422.713C422.79 126.361 423.391 127.505 424.516 128.591C425.679 129.638 427.637 130.161 430.39 130.161C432.872 130.161 434.772 129.676 436.09 128.707C437.409 127.699 438.068 126.477 438.068 125.043C438.068 123.763 437.583 122.774 436.614 122.076C435.645 121.34 434.074 120.855 431.903 120.622L428.529 120.273C425.582 119.963 423.178 119.091 421.317 117.656C419.456 116.182 418.525 114.127 418.525 111.491C418.525 108.505 419.63 106.178 421.84 104.511C424.051 102.843 426.901 102.01 430.39 102.01C433.88 102.01 436.711 102.785 438.882 104.336C441.054 105.887 442.178 108.195 442.256 111.258H437.021C436.982 110.017 436.401 108.97 435.276 108.117C434.19 107.225 432.562 106.779 430.39 106.779C428.219 106.779 426.571 107.225 425.446 108.117C424.322 109.009 423.76 110.133 423.76 111.491C423.76 112.654 424.147 113.584 424.923 114.282C425.737 114.98 427.056 115.426 428.878 115.62L432.252 115.969C435.586 116.318 438.262 117.249 440.278 118.761C442.295 120.235 443.303 122.328 443.303 125.043C443.303 126.982 442.741 128.707 441.616 130.219C440.53 131.693 439.018 132.856 437.079 133.709C435.14 134.523 432.911 134.931 430.39 134.931ZM454.478 97.9383C453.237 97.9383 452.307 97.6087 451.686 96.9495C451.105 96.2903 450.814 95.4566 450.814 94.4484C450.814 93.4403 451.105 92.6066 451.686 91.9474C452.307 91.2882 453.237 90.9586 454.478 90.9586C455.719 90.9586 456.63 91.2882 457.212 91.9474C457.832 92.6066 458.142 93.4403 458.142 94.4484C458.142 95.4566 457.832 96.2903 457.212 96.9495C456.63 97.6087 455.719 97.9383 454.478 97.9383ZM452.908 134V107.361H448.138V102.94H458.491V134H452.908ZM481.037 146.098C478.129 146.098 475.298 145.885 472.545 145.458V140.747C473.941 140.941 475.395 141.096 476.907 141.212C478.458 141.367 479.912 141.445 481.269 141.445C485.535 141.445 488.521 140.573 490.227 138.828C491.972 137.121 492.844 134.368 492.844 130.568V127.776C491.681 129.948 490.11 131.576 488.133 132.662C486.194 133.709 484.042 134.233 481.677 134.233C478.768 134.233 476.209 133.515 473.999 132.081C471.789 130.607 470.063 128.668 468.822 126.264C467.581 123.86 466.961 121.223 466.961 118.354V117.307C466.961 114.399 467.601 111.781 468.88 109.455C470.16 107.128 471.924 105.286 474.173 103.929C476.422 102.572 479.02 101.893 481.967 101.893C484.682 101.893 487.047 102.494 489.063 103.697C491.119 104.899 492.689 106.644 493.775 108.931V102.94H498.195V130.336C498.195 134.058 497.614 137.063 496.45 139.351C495.326 141.678 493.503 143.384 490.983 144.47C488.501 145.555 485.186 146.098 481.037 146.098ZM482.724 129.114C484.585 129.114 486.272 128.707 487.784 127.893C489.335 127.078 490.556 125.915 491.448 124.403C492.379 122.852 492.844 121.01 492.844 118.877V116.202C492.844 114.108 492.359 112.344 491.39 110.909C490.459 109.474 489.238 108.388 487.726 107.652C486.213 106.915 484.565 106.547 482.782 106.547C479.718 106.547 477.237 107.574 475.337 109.629C473.475 111.684 472.545 114.418 472.545 117.83C472.545 121.281 473.495 124.035 475.395 126.09C477.334 128.106 479.777 129.114 482.724 129.114ZM508.537 134V102.94H512.957V110.153C513.655 107.516 514.896 105.5 516.68 104.104C518.502 102.708 520.868 102.01 523.776 102.01H524.009C527.925 102.01 530.814 103.231 532.675 105.674C534.575 108.117 535.525 111.646 535.525 116.26V134H529.941V115.097C529.941 112.693 529.263 110.773 527.906 109.338C526.548 107.865 524.687 107.128 522.322 107.128C519.879 107.128 517.901 107.884 516.389 109.397C514.877 110.909 514.121 112.925 514.121 115.446V134H508.537ZM558.945 135.047C556.23 135.047 553.885 134.582 551.907 133.651C549.929 132.72 548.32 131.499 547.079 129.987C545.838 128.436 544.908 126.71 544.287 124.81C543.706 122.91 543.415 120.971 543.415 118.994V117.947C543.415 115.93 543.706 113.972 544.287 112.072C544.908 110.172 545.838 108.466 547.079 106.954C548.32 105.403 549.891 104.181 551.791 103.289C553.729 102.359 555.998 101.893 558.596 101.893C561.969 101.893 564.742 102.63 566.913 104.104C569.123 105.538 570.752 107.4 571.799 109.687C572.885 111.975 573.428 114.418 573.428 117.016V119.517H548.766C548.96 122.58 549.871 125.12 551.5 127.137C553.128 129.153 555.61 130.161 558.945 130.161C561.388 130.161 563.365 129.618 564.878 128.533C566.429 127.447 567.359 126.187 567.669 124.752H572.904C572.245 127.97 570.675 130.491 568.193 132.313C565.711 134.136 562.628 135.047 558.945 135.047ZM558.596 106.779C555.804 106.779 553.613 107.574 552.023 109.164C550.433 110.715 549.425 112.77 548.999 115.329H567.96C567.611 112.693 566.661 110.618 565.11 109.106C563.559 107.555 561.388 106.779 558.596 106.779ZM581.356 134V102.94H585.776V112.247C586.241 108.912 587.463 106.469 589.44 104.918C591.418 103.367 594.113 102.591 597.525 102.591H598.572V107.594H596.595C593.493 107.594 591.108 108.427 589.44 110.095C587.773 111.723 586.939 114.089 586.939 117.191V134H581.356Z" fill="white"></path><defs><linearGradient id="paint0_linear_1546_86" x1="75.577" y1="0.0253906" x2="75.577" y2="151.62" gradientUnits="userSpaceOnUse"><stop stop-color="#FF5420"></stop><stop offset="1" stop-color="#D13100"></stop></linearGradient></defs></svg>